<svg width="30" height="31" viewBox="0 0 30 31" fill="none" xmlns="http://www.w3.org/2000/svg">
<path fill-rule="evenodd" clip-rule="evenodd" d="M5 1.97839C2.92893 1.97839 1.25 3.65733 1.25 5.72839C1.25 7.79946 2.92893 9.47839 5 9.47839C7.07107 9.47839 8.75 7.79946 8.75 5.72839C8.75 3.65733 7.07107 1.97839 5 1.97839ZM3.75 5.72839C3.75 5.03804 4.30964 4.47839 5 4.47839C5.69036 4.47839 6.25 5.03804 6.25 5.72839C6.25 6.41875 5.69036 6.97839 5 6.97839C4.30964 6.97839 3.75 6.41875 3.75 5.72839Z" fill="white"/>
<path fill-rule="evenodd" clip-rule="evenodd" d="M20 9.47839C17.6794 9.47839 15.4538 10.4003 13.8128 12.0412C12.1719 13.6822 11.25 15.9077 11.25 18.2284V26.9784C11.25 27.6687 11.8096 28.2284 12.5 28.2284H17.5C18.1904 28.2284 18.75 27.6687 18.75 26.9784V18.2284C18.75 17.8969 18.8817 17.5789 19.1161 17.3445C19.3505 17.1101 19.6685 16.9784 20 16.9784C20.3315 16.9784 20.6495 17.1101 20.8839 17.3445C21.1183 17.5789 21.25 17.8969 21.25 18.2284V26.9784C21.25 27.6687 21.8096 28.2284 22.5 28.2284H27.5C28.1904 28.2284 28.75 27.6687 28.75 26.9784V18.2284C28.75 15.9078 27.8281 13.6822 26.1872 12.0412C24.5462 10.4003 22.3206 9.47839 20 9.47839ZM20 11.9784C18.3424 11.9784 16.7527 12.6369 15.5806 13.809C14.4085 14.9811 13.75 16.5708 13.75 18.2284V25.7284H16.25V18.2284C16.25 17.2338 16.6451 16.28 17.3484 15.5767C18.0516 14.8735 19.0054 14.4784 20 14.4784C20.9946 14.4784 21.9484 14.8735 22.6516 15.5767C23.3549 16.28 23.75 17.2338 23.75 18.2284V25.7284H26.25V18.2284C26.25 16.5708 25.5915 14.9811 24.4194 13.809C23.2473 12.6369 21.6576 11.9784 20 11.9784Z" fill="white"/>
<path fill-rule="evenodd" clip-rule="evenodd" d="M1.25 11.9784C1.25 11.288 1.80964 10.7284 2.5 10.7284H7.5C8.19036 10.7284 8.75 11.288 8.75 11.9784V26.9784C8.75 27.6687 8.19036 28.2284 7.5 28.2284H2.5C1.80964 28.2284 1.25 27.6687 1.25 26.9784V11.9784ZM3.75 13.2284V25.7284H6.25V13.2284H3.75Z" fill="white"/>
</svg>
