<svg width="51" height="35" viewBox="0 0 51 35" fill="none" xmlns="http://www.w3.org/2000/svg">
<path d="M10.8486 18.8133H28.7693L20.94 25.7971C20.3143 26.3552 20.3143 27.2711 20.94 27.8293C21.5657 28.3874 22.5764 28.3874 23.2022 27.8293L33.7749 18.3982C34.4006 17.8401 34.4006 16.9385 33.7749 16.3804L23.2182 6.93506C22.9184 6.66708 22.5115 6.51648 22.0871 6.51648C21.6627 6.51648 21.2558 6.66708 20.956 6.93506C20.3303 7.49319 20.3303 8.39479 20.956 8.95292L28.7693 15.951H10.8486C9.96615 15.951 9.24419 16.595 9.24419 17.3822C9.24419 18.1693 9.96615 18.8133 10.8486 18.8133Z" fill="white"/>
</svg>
