<svg width="30" height="31" viewBox="0 0 30 31" fill="none" xmlns="http://www.w3.org/2000/svg">
<path fill-rule="evenodd" clip-rule="evenodd" d="M18.75 1.97839C16.7609 1.97839 14.8532 2.76857 13.4467 4.17509C12.0402 5.58162 11.25 7.48927 11.25 9.47839V11.9784H8.75C8.05964 11.9784 7.5 12.538 7.5 13.2284V18.2284C7.5 18.9188 8.05964 19.4784 8.75 19.4784H11.25V28.2284C11.25 28.9187 11.8096 29.4784 12.5 29.4784H17.5C18.1904 29.4784 18.75 28.9187 18.75 28.2284V19.4784H21.25C21.8236 19.4784 22.3236 19.088 22.4627 18.5316L23.7127 13.5316C23.806 13.1581 23.7221 12.7625 23.4853 12.4591C23.2484 12.1557 22.8849 11.9784 22.5 11.9784H18.75V9.47839H22.5C23.1904 9.47839 23.75 8.91875 23.75 8.22839V3.22839C23.75 2.53804 23.1904 1.97839 22.5 1.97839H18.75ZM15.2145 5.94286C16.1521 5.00518 17.4239 4.47839 18.75 4.47839H21.25V6.97839H18.75C18.087 6.97839 17.4511 7.24179 16.9822 7.71063C16.5134 8.17947 16.25 8.81535 16.25 9.47839V13.2284C16.25 13.9187 16.8096 14.4784 17.5 14.4784H20.899L20.274 16.9784H17.5C16.8096 16.9784 16.25 17.538 16.25 18.2284V26.9784H13.75V18.2284C13.75 17.538 13.1904 16.9784 12.5 16.9784H10V14.4784H12.5C13.1904 14.4784 13.75 13.9187 13.75 13.2284V9.47839C13.75 8.15231 14.2768 6.88054 15.2145 5.94286Z" fill="white"/>
</svg>
