<svg width="30" height="31" viewBox="0 0 30 31" fill="none" xmlns="http://www.w3.org/2000/svg">
<path fill-rule="evenodd" clip-rule="evenodd" d="M12.1755 10.1267C13.3423 9.52119 14.6704 9.29908 15.9708 9.49191C17.2972 9.6886 18.5252 10.3067 19.4734 11.2549C20.4216 12.2031 21.0397 13.4311 21.2364 14.7575C21.4292 16.0579 21.2071 17.386 20.6017 18.5529C19.9962 19.7197 19.0382 20.666 17.864 21.257C16.6897 21.8481 15.359 22.0538 14.0611 21.8449C12.7632 21.6361 11.5642 21.0233 10.6346 20.0937C9.70504 19.1642 9.09225 17.9652 8.8834 16.6672C8.67455 15.3693 8.88027 14.0386 9.4713 12.8644C10.0623 11.6901 11.0086 10.7321 12.1755 10.1267ZM15.6041 11.9649C14.8239 11.8492 14.027 11.9824 13.3269 12.3457C12.6268 12.709 12.059 13.2838 11.7044 13.9883C11.3498 14.6929 11.2263 15.4913 11.3516 16.2701C11.477 17.0488 11.8446 17.7682 12.4024 18.326C12.9601 18.8837 13.6795 19.2514 14.4583 19.3767C15.237 19.502 16.0354 19.3786 16.74 19.0239C17.4445 18.6693 18.0193 18.1016 18.3826 17.4014C18.7459 16.7013 18.8792 15.9045 18.7635 15.1242C18.6454 14.3284 18.2746 13.5916 17.7057 13.0227C17.1368 12.4537 16.4 12.0829 15.6041 11.9649Z" stroke="white" stroke-linecap="round" stroke-linejoin="round"/>
<path d="M21.875 7.60339C21.1846 7.60339 20.625 8.16304 20.625 8.85339C20.625 9.54375 21.1846 10.1034 21.875 10.1034H21.8875C22.5779 10.1034 23.1375 9.54375 23.1375 8.85339C23.1375 8.16304 22.5779 7.60339 21.8875 7.60339H21.875Z" stroke="white" stroke-linecap="round" stroke-linejoin="round"/>
<path fill-rule="evenodd" clip-rule="evenodd" d="M1.25 9.47839C1.25 5.33626 4.60786 1.97839 8.75 1.97839H21.25C25.3921 1.97839 28.75 5.33626 28.75 9.47839V21.9784C28.75 26.1205 25.3921 29.4784 21.25 29.4784H8.75C4.60786 29.4784 1.25 26.1205 1.25 21.9784V9.47839ZM8.75 4.47839C5.98858 4.47839 3.75 6.71697 3.75 9.47839V21.9784C3.75 24.7398 5.98858 26.9784 8.75 26.9784H21.25C24.0114 26.9784 26.25 24.7398 26.25 21.9784V9.47839C26.25 6.71697 24.0114 4.47839 21.25 4.47839H8.75Z" stroke="white" stroke-linecap="round" stroke-linejoin="round"/>
<rect x="0.5" y="1.22839" width="29" height="29" stroke="white"/>
</svg>
