<svg width="30" height="31" viewBox="0 0 30 31" fill="none" xmlns="http://www.w3.org/2000/svg">
<g clip-path="url(#clip0_8_458)">
<path fill-rule="evenodd" clip-rule="evenodd" d="M22.2622 3.42068C20.9009 3.08007 19.4679 3.16575 18.1569 3.66613C16.8459 4.16651 15.7202 5.05746 14.932 6.21846C14.1525 7.36671 13.7404 8.72433 13.7497 10.1114C12.178 9.99329 10.6406 9.56828 9.22576 8.85616C7.44706 7.96088 5.91738 6.6396 4.77295 5.01L3.75001 5.72839L2.63197 5.16937C2.62204 5.18925 2.61267 5.20931 2.60386 5.22953L2.60017 5.23797L2.5857 5.27163C2.57387 5.29945 2.55777 5.33795 2.53806 5.38662C2.49865 5.48391 2.44471 5.622 2.3816 5.79655C2.25553 6.14527 2.09198 6.64186 1.93435 7.25135C1.62061 8.46451 1.32214 10.1562 1.40755 12.0352C1.4932 13.9195 1.96679 16.0179 3.22133 17.9988C4.16178 19.4837 5.51449 20.8602 7.39342 22.0196C5.49547 22.894 3.40821 23.3132 1.29969 23.2294C0.721286 23.2064 0.202754 23.5835 0.0464428 24.1408C-0.109868 24.6982 0.136939 25.29 0.642953 25.5711C6.6136 28.8881 13.3137 28.919 18.5561 26.1287C23.8289 23.3222 27.5 17.7283 27.5 10.1034L27.5 10.0993C27.4993 9.89644 27.4897 9.69386 27.4711 9.4921C28.6781 8.15285 29.5363 6.53232 29.9645 4.77416L28.75 4.47839L28.0295 3.45694C27.1439 4.08161 26.181 4.58662 25.1658 4.95977C24.3403 4.22159 23.3447 3.69154 22.2622 3.42068ZM3.90497 11.9216C3.84284 10.5549 4.0262 9.28461 4.25582 8.2829C5.37156 9.41899 6.66981 10.3685 8.10178 11.0892C10.2487 12.1699 12.6296 12.7028 15.0324 12.6405C15.7099 12.6229 16.25 12.0686 16.25 11.3909V10.1409L16.2499 10.1241C16.2379 9.2331 16.4999 8.35989 17.0004 7.62261C17.5009 6.88533 18.2158 6.31955 19.0483 6.00178C19.8809 5.68402 20.7909 5.62961 21.6554 5.84591C22.5198 6.06222 23.297 6.53879 23.8818 7.21119C24.2045 7.58218 24.7146 7.72957 25.1854 7.5878C25.475 7.50062 25.7615 7.40471 26.0446 7.30027C25.8086 7.60859 25.5507 7.90127 25.2723 8.17588C24.9752 8.46886 24.8439 8.89075 24.9222 9.30058C24.9729 9.5659 24.999 9.83535 25 10.1055C24.9993 16.8544 21.7956 21.5723 17.3814 23.9218C14.1338 25.6504 10.1628 26.1326 6.20013 25.123C7.79276 24.6644 9.31337 23.9553 10.702 23.0126C11.0776 22.7577 11.2854 22.3193 11.2451 21.8672C11.2047 21.4151 10.9224 21.0205 10.5077 20.8361C7.89506 19.675 6.30036 18.188 5.33337 16.6611C4.36135 15.1264 3.97556 13.4748 3.90497 11.9216Z" fill="white"/>
</g>
<defs>
<clipPath id="clip0_8_458">
<rect width="30" height="30" fill="white" transform="translate(0 0.728394)"/>
</clipPath>
</defs>
</svg>
